<svg width="116" height="51" viewBox="0 0 116 51" fill="none" xmlns="http://www.w3.org/2000/svg">
<path d="M3 42L9.82334 36.6669L1.79307 33.4243L3 42ZM114.734 50.3481C114.467 49.0528 114.176 47.7856 113.864 46.5462L112.41 46.9125C112.716 48.1308 113.002 49.3771 113.266 50.6519L114.734 50.3481ZM111.645 39.18C110.755 36.6701 109.765 34.2957 108.683 32.0537L107.332 32.7053C108.389 34.8968 109.359 37.2209 110.231 39.6813L111.645 39.18ZM104.9 25.2942C103.461 23.0662 101.916 21.0053 100.279 19.107L99.1431 20.0867C100.734 21.9316 102.238 23.937 103.64 26.1081L104.9 25.2942ZM94.7877 13.6221C92.7896 11.9084 90.6976 10.3863 88.5295 9.04943L87.7422 10.3262C89.8441 11.6223 91.8728 13.0982 93.8111 14.7607L94.7877 13.6221ZM81.6338 5.51235C79.2345 4.50989 76.7735 3.70134 74.2708 3.07909L73.9088 4.53478C76.3397 5.13915 78.7283 5.92403 81.0555 6.89639L81.6338 5.51235ZM66.6374 1.76155C64.0727 1.50533 61.4865 1.42754 58.8988 1.52051L58.9526 3.01955C61.4746 2.92894 63.9929 3.00483 66.4882 3.25412L66.6374 1.76155ZM51.2003 2.29578C48.6645 2.71462 46.1458 3.2922 43.6633 4.0213L44.086 5.46051C46.5109 4.74833 48.97 4.18448 51.4448 3.77573L51.2003 2.29578ZM36.3876 6.63697C34.0225 7.64869 31.7106 8.80175 29.4704 10.0893L30.2178 11.3898C32.407 10.1316 34.6663 9.00477 36.9776 8.0161L36.3876 6.63697ZM23.0077 14.3305C20.943 15.8684 18.9667 17.5325 17.0967 19.3162L18.132 20.4016C19.9572 18.6606 21.887 17.0357 23.9037 15.5334L23.0077 14.3305ZM11.8434 24.9955C10.2215 26.9885 8.72119 29.092 7.35998 31.2997L8.63679 32.0869C9.96297 29.936 11.4252 27.8857 13.0068 25.9424L11.8434 24.9955ZM3 42L16.6467 31.3338L0.58613 24.8485L3 42ZM115.469 50.1962C115.199 48.8907 114.906 47.6131 114.591 46.3631L111.682 47.0957C111.986 48.3034 112.27 49.5393 112.531 50.8038L115.469 50.1962ZM112.352 38.9293C111.453 36.3948 110.452 33.9952 109.359 31.7278L106.657 33.0312C107.701 35.1973 108.66 37.4963 109.524 39.932L112.352 38.9293ZM105.53 24.8872C104.072 22.6308 102.507 20.5422 100.847 18.6172L98.5751 20.5765C100.143 22.3948 101.626 24.3724 103.01 26.5151L105.53 24.8872ZM95.2759 13.0528C93.248 11.3135 91.1244 9.7683 88.9231 8.41103L87.3486 10.9646C89.4174 12.2402 91.4144 13.6931 93.3229 15.33L95.2759 13.0528ZM81.9229 4.82032C79.4877 3.80282 76.9904 2.98244 74.4517 2.35125L73.7279 5.26262C76.1228 5.85806 78.4751 6.6311 80.7664 7.58842L81.9229 4.82032ZM66.7119 1.01527C64.1126 0.75558 61.4925 0.676845 58.8718 0.770995L58.9795 3.76906C61.4686 3.67964 63.953 3.75458 66.4137 4.0004L66.7119 1.01527ZM51.0781 1.5558C48.5117 1.9797 45.9633 2.56413 43.452 3.30169L44.2974 6.18011C46.6934 5.4764 49.1228 4.91941 51.567 4.5157L51.0781 1.5558ZM36.0927 5.94741C33.7006 6.97065 31.3624 8.13683 29.0966 9.4391L30.5916 12.0401C32.7552 10.7965 34.9882 9.68281 37.2725 8.70566L36.0927 5.94741ZM22.5596 13.729C20.471 15.2848 18.4714 16.9684 16.579 18.7735L18.6497 20.9443C20.4525 19.2246 22.3589 17.6193 24.3517 16.1349L22.5596 13.729ZM11.2617 24.5221C9.61964 26.5398 8.10031 28.6699 6.72157 30.906L9.27519 32.4805C10.5839 30.3581 12.0271 28.3344 13.5885 26.4158L11.2617 24.5221Z" fill="#2B3CE0"/>
</svg>
