<svg width="108" height="49" viewBox="0 0 108 49" fill="none" xmlns="http://www.w3.org/2000/svg">
<path d="M107.5 13.542L99.2744 16.2512L105.733 22.0202L107.5 13.542ZM0.509761 2.60959C1.58842 3.54124 2.6454 4.47438 3.68209 5.40726L4.68546 4.29225C3.64164 3.35295 2.57702 2.41306 1.49024 1.4744L0.509761 2.60959ZM9.8616 11.1725C11.9415 13.1781 13.939 15.1653 15.8685 17.1165L16.9351 16.0618C14.9998 14.1047 12.9936 12.1088 10.9028 10.0927L9.8616 11.1725ZM21.781 23.1682C23.819 25.2672 25.7906 27.2976 27.7128 29.2296L28.7762 28.1717C26.8616 26.2473 24.8964 24.2235 22.8572 22.1233L21.781 23.1682ZM33.8288 35.1449C36.0292 37.1644 38.1971 39.0084 40.3653 40.6281L41.263 39.4264C39.1465 37.8453 37.0184 36.0362 34.843 34.0398L33.8288 35.1449ZM47.6874 45.154C50.3638 46.4356 53.1026 47.3142 55.962 47.7003L56.1628 46.2138C53.4799 45.8515 50.8914 45.0251 48.3352 43.8011L47.6874 45.154ZM64.6242 47.3613C67.224 46.8253 69.9292 45.896 72.7737 44.5349L72.1263 43.1818C69.3759 44.4979 66.7861 45.384 64.3213 45.8922L64.6242 47.3613ZM80.1793 40.221C82.3545 38.7432 84.6145 37.0355 86.9712 35.0834L86.0143 33.9282C83.6891 35.8542 81.4671 37.5326 79.3363 38.9802L80.1793 40.221ZM93.3789 29.3966C95.3184 27.5678 97.3215 25.5878 99.3935 23.4497L98.3164 22.4058C96.2584 24.5294 94.2714 26.4935 92.3499 28.3053L93.3789 29.3966ZM107.5 13.542L91.0489 18.9605L103.967 30.4983L107.5 13.542ZM0.019521 3.17718C1.09412 4.10533 2.14729 5.03509 3.1804 5.96477L5.18714 3.73474C4.13975 2.79223 3.07132 1.84897 1.98048 0.9068L0.019521 3.17718ZM9.34101 11.7124C11.4155 13.7128 13.4086 15.6956 15.3352 17.6438L17.4684 15.5345C15.5302 13.5744 13.5196 11.5741 11.4234 9.55285L9.34101 11.7124ZM21.2429 23.6906C23.2803 25.789 25.2552 27.8228 27.1811 29.7586L29.3079 27.6427C27.3971 25.7221 25.4352 23.7017 23.3953 21.6008L21.2429 23.6906ZM33.3216 35.6975C35.5347 37.7284 37.7223 39.5899 39.9164 41.229L41.7119 38.8256C39.6213 37.2638 37.513 35.4721 35.3501 33.4872L33.3216 35.6975ZM47.3635 45.8305C50.0999 47.1408 52.914 48.0455 55.8617 48.4436L56.2631 45.4705C53.6686 45.1202 51.1552 44.3199 48.6591 43.1247L47.3635 45.8305ZM64.7757 48.0959C67.4429 47.5459 70.2058 46.5951 73.0975 45.2114L71.8026 42.5053C69.0992 43.7988 66.5672 44.6634 64.1698 45.1577L64.7757 48.0959ZM80.6007 40.8414C82.7982 39.3484 85.0772 37.6261 87.4496 35.661L85.5359 33.3507C83.2264 35.2636 81.0234 36.9273 78.9149 38.3599L80.6007 40.8414ZM93.8935 29.9423C95.842 28.105 97.8531 26.117 99.9321 23.9717L97.7778 21.8839C95.7268 24.0002 93.7478 25.9563 91.8354 27.7596L93.8935 29.9423Z" fill="#2B3CE0"/>
</svg>
