<svg width="111" height="39" viewBox="0 0 111 39" fill="none" xmlns="http://www.w3.org/2000/svg">
<path d="M3.14396e-06 1.0002L0.897738 9.6138L7.90847 4.52954L3.14396e-06 1.0002ZM108.848 0.628853C108.212 1.7454 107.567 2.83413 106.912 3.89525L108.188 4.68294C108.852 3.60663 109.507 2.50283 110.152 1.37137L108.848 0.628853ZM102.717 10.1518C101.189 12.2471 99.621 14.2093 98.0167 16.0409L99.1451 17.0292C100.78 15.1627 102.376 13.1655 103.929 11.0356L102.717 10.1518ZM92.7829 21.443C90.894 23.1975 88.9656 24.7891 87.0039 26.2213L87.8884 27.4328C89.8994 25.9646 91.8733 24.3352 93.8037 22.542L92.7829 21.443ZM80.6798 30.2323C78.4369 31.4496 76.1609 32.4761 73.86 33.3163L74.3745 34.7253C76.7459 33.8593 79.0891 32.8023 81.3953 31.5506L80.6798 30.2323ZM66.6593 35.3287C64.2001 35.8117 61.7216 36.0949 59.2333 36.183L59.2864 37.6821C61.8534 37.5912 64.4108 37.299 66.9484 36.8006L66.6593 35.3287ZM51.7617 35.8682C49.3098 35.5769 46.8565 35.102 44.4109 34.4475L44.0231 35.8965C46.5358 36.569 49.0595 37.0577 51.5848 37.3577L51.7617 35.8682ZM37.3103 32.0336C35.0407 31.0966 32.7855 30.0051 30.5522 28.7624L29.8229 30.0732C32.105 31.343 34.4125 32.46 36.7379 33.4201L37.3103 32.0336ZM24.1881 24.7684C22.1762 23.3591 20.1894 21.8241 18.2335 20.1662L17.2636 21.3104C19.2533 22.997 21.2766 24.5602 23.3274 25.997L24.1881 24.7684ZM12.6885 15.0506C10.9478 13.3091 9.23845 11.4656 7.56506 9.52229L6.42839 10.5011C8.12529 12.4717 9.85988 14.3425 11.6276 16.111L12.6885 15.0506ZM3.14396e-06 1.0002L1.79547 18.2274L15.8169 8.05888L3.14396e-06 1.0002ZM108.197 0.257595C107.565 1.36669 106.924 2.44788 106.274 3.5014L108.827 5.07679C109.495 3.99288 110.154 2.88155 110.803 1.74263L108.197 0.257595ZM102.112 9.70985C100.596 11.7879 99.0415 13.7326 97.4525 15.5467L99.7093 17.5234C101.359 15.6394 102.97 13.6247 104.535 11.4776L102.112 9.70985ZM92.2725 20.8935C90.4044 22.6287 88.4986 24.2014 86.5617 25.6155L88.3306 28.0385C90.3663 26.5523 92.3629 24.904 94.3142 23.0915L92.2725 20.8935ZM80.322 29.5731C78.1108 30.7732 75.8683 31.7845 73.6028 32.6118L74.6318 35.4298C77.0385 34.5509 79.4152 33.4787 81.753 32.2098L80.322 29.5731ZM66.5148 34.5928C64.0948 35.068 61.6558 35.3468 59.2068 35.4335L59.3129 38.4316C61.9192 38.3393 64.5161 38.0426 67.0929 37.5366L66.5148 34.5928ZM51.8502 35.1234C49.435 34.8365 47.0169 34.3685 44.6048 33.723L43.8292 36.621C46.3754 37.3024 48.9344 37.7981 51.4963 38.1025L51.8502 35.1234ZM37.5965 31.3404C35.3548 30.4149 33.1258 29.3362 30.9169 28.1071L29.4582 30.7285C31.7647 32.012 34.0984 33.1418 36.4516 34.1133L37.5965 31.3404ZM24.6184 24.1541C22.6261 22.7585 20.6574 21.2377 18.7185 19.5941L16.7787 21.8826C18.7853 23.5835 20.8267 25.1608 22.8971 26.6112L24.6184 24.1541ZM13.219 14.5204C11.4918 12.7924 9.79504 10.9626 8.13339 9.0329L5.86006 10.9904C7.5687 12.9747 9.3159 14.8591 11.0971 16.6412L13.219 14.5204Z" fill="#2B3CE0"/>
</svg>
