<svg width="122" height="36" viewBox="0 0 122 36" fill="none" xmlns="http://www.w3.org/2000/svg">
<path d="M121.5 0.467285L113.357 3.41615L119.982 8.99354L121.5 0.467285ZM0.631864 4.5216C1.79651 5.17774 2.94547 5.82296 4.07907 6.45726L4.81153 5.14825C3.67928 4.5147 2.53159 3.87021 1.36814 3.21473L0.631864 4.5216ZM10.8879 10.2364C13.2378 11.5289 15.5172 12.7694 17.7297 13.9582L18.4396 12.6368C16.232 11.4507 13.9569 10.2126 11.6109 8.92211L10.8879 10.2364ZM24.6099 17.5987C26.9987 18.8412 29.3039 20.0157 31.5308 21.1225L32.1985 19.7793C29.9807 18.677 27.6838 17.5068 25.3021 16.268L24.6099 17.5987ZM38.5821 24.5207C41.0608 25.6738 43.4356 26.7302 45.7154 27.6907L46.2977 26.3083C44.037 25.3559 41.6792 24.3071 39.2148 23.1606L38.5821 24.5207ZM53.0043 30.5476C55.618 31.4865 58.1 32.2758 60.4684 32.9163L60.86 31.4683C58.5361 30.8398 56.0929 30.0633 53.5114 29.1359L53.0043 30.5476ZM68.172 34.5309C70.942 34.9227 73.5578 35.0658 76.0583 34.961L75.9956 33.4624C73.5963 33.5628 71.0724 33.4263 68.3821 33.0457L68.172 34.5309ZM83.8959 33.731C86.4226 33.0208 88.8509 32.0147 91.2348 30.7215L90.5196 29.403C88.2256 30.6474 85.9007 31.6094 83.4901 32.2869L83.8959 33.731ZM97.8131 26.3767C99.778 24.8545 101.748 23.1369 103.754 21.2294L102.72 20.1424C100.743 22.0224 98.8117 23.7056 96.8944 25.1909L97.8131 26.3767ZM109.247 15.6581C110.938 13.8495 112.673 11.9183 114.468 9.86708L113.339 8.87924C111.552 10.9215 109.828 12.84 108.152 14.6338L109.247 15.6581ZM121.5 0.467285L105.215 6.36502L118.465 17.5198L121.5 0.467285ZM0.263727 5.17503C1.42897 5.83151 2.57856 6.47708 3.71284 7.11177L5.17775 4.49374C4.04618 3.86058 2.89914 3.21644 1.73627 2.5613L0.263727 5.17503ZM10.5265 10.8936C12.8782 12.1871 15.1598 13.4288 17.3747 14.6188L18.7946 11.9761C16.5894 10.7913 14.3165 9.55437 11.9723 8.26496L10.5265 10.8936ZM24.2638 18.2641C26.6562 19.5085 28.9655 20.685 31.197 21.7941L32.5323 19.1077C30.3192 18.0077 28.0263 16.8396 25.6481 15.6026L24.2638 18.2641ZM38.2657 25.2007C40.7517 26.3572 43.1349 27.4174 45.4242 28.3818L46.5889 25.6171C44.3377 24.6688 41.9883 23.6237 39.5311 22.4806L38.2657 25.2007ZM52.7507 31.2534C55.3806 32.1982 57.882 32.9938 60.2726 33.6403L61.0558 30.7443C58.7541 30.1218 56.3303 29.3516 53.765 28.4301L52.7507 31.2534ZM68.067 35.2735C70.8769 35.671 73.5385 35.8172 76.0897 35.7104L75.9642 32.713C73.6155 32.8114 71.1376 32.678 68.4871 32.3031L68.067 35.2735ZM84.0989 34.453C86.6836 33.7265 89.1635 32.6984 91.5925 31.3807L90.1619 28.7437C87.9129 29.9638 85.6397 30.9037 83.2871 31.5649L84.0989 34.453ZM98.2724 26.9696C100.261 25.4289 102.25 23.6941 104.27 21.7729L102.203 19.5989C100.24 21.4652 98.3286 23.1311 96.4351 24.598L98.2724 26.9696ZM109.795 16.1703C111.493 14.3542 113.233 12.4167 115.032 10.361L112.775 8.38532C110.991 10.4231 109.274 12.3353 107.604 14.1217L109.795 16.1703Z" fill="#2B3CE0"/>
</svg>
