<svg width="680" height="585" viewBox="0 0 680 585" fill="none" xmlns="http://www.w3.org/2000/svg">
<mask id="path-1-inside-1_44_736" fill="white">
<path d="M575.094 584.191C623.586 537.721 657.191 477.934 671.658 412.391C686.124 346.848 680.804 278.493 656.369 215.97C631.934 153.447 589.482 99.5632 534.381 61.1338C479.281 22.7043 414.006 1.45465 346.812 0.0720142C279.618 -1.31062 213.522 17.2358 156.883 53.3661C100.244 89.4963 55.6054 141.588 28.6122 203.053C1.61893 264.518 -6.51658 332.596 5.23442 398.678C16.9854 464.76 48.0951 525.879 94.6295 574.305L100.098 569.065C54.6011 521.719 24.1852 461.963 12.6963 397.355C1.2074 332.746 9.16147 266.186 35.5527 206.092C61.9439 145.998 105.587 95.0686 160.963 59.7441C216.339 24.4197 280.96 6.28685 346.656 7.63865C412.351 8.99044 476.17 29.7662 530.042 67.3386C583.914 104.911 625.419 157.593 649.309 218.721C673.199 279.85 678.401 346.681 664.257 410.762C650.112 474.843 617.257 533.297 569.846 578.731L575.094 584.191Z"/>
</mask>
<path d="M575.094 584.191C623.586 537.721 657.191 477.934 671.658 412.391C686.124 346.848 680.804 278.493 656.369 215.97C631.934 153.447 589.482 99.5632 534.381 61.1338C479.281 22.7043 414.006 1.45465 346.812 0.0720142C279.618 -1.31062 213.522 17.2358 156.883 53.3661C100.244 89.4963 55.6054 141.588 28.6122 203.053C1.61893 264.518 -6.51658 332.596 5.23442 398.678C16.9854 464.76 48.0951 525.879 94.6295 574.305L100.098 569.065C54.6011 521.719 24.1852 461.963 12.6963 397.355C1.2074 332.746 9.16147 266.186 35.5527 206.092C61.9439 145.998 105.587 95.0686 160.963 59.7441C216.339 24.4197 280.96 6.28685 346.656 7.63865C412.351 8.99044 476.17 29.7662 530.042 67.3386C583.914 104.911 625.419 157.593 649.309 218.721C673.199 279.85 678.401 346.681 664.257 410.762C650.112 474.843 617.257 533.297 569.846 578.731L575.094 584.191Z" stroke="transparent" stroke-width="12" mask="url(#path-1-inside-1_44_736)"/>
</svg>
