<svg width="26" height="33" viewBox="0 0 26 33" fill="none" xmlns="http://www.w3.org/2000/svg">
<path d="M16.3113 13.368C19.2428 13.7307 21.4793 14.728 23.0206 16.36C24.562 17.992 25.3326 20.032 25.3326 22.48C25.3326 24.3236 24.8642 26.0009 23.9273 27.512C22.9904 29.0231 21.57 30.232 19.666 31.1387C17.7922 32.0151 15.4953 32.4533 12.7753 32.4533C10.5086 32.4533 8.31751 32.136 6.20196 31.5013C4.11662 30.8364 2.33351 29.9298 0.852624 28.7813L3.39129 24.2027C4.53974 25.1698 5.92996 25.9404 7.56196 26.5147C9.22418 27.0587 10.9317 27.3307 12.6846 27.3307C14.77 27.3307 16.402 26.9076 17.5806 26.0613C18.7895 25.1849 19.394 24.0062 19.394 22.5253C19.394 21.0444 18.8197 19.896 17.6713 19.08C16.5531 18.2338 14.8304 17.8107 12.5033 17.8107H9.60196V13.776L16.81 5.208H2.39396V0.266663H24.018V4.21066L16.3113 13.368Z" fill="white"/>
</svg>
