<svg width="32" height="29" viewBox="0 0 32 29" fill="none" xmlns="http://www.w3.org/2000/svg">
<path d="M31.439 11.8887L17.9853 0.831576C17.5495 0.450297 16.678 0.123485 16.0244 0.123485C15.4252 0.123485 14.5537 0.450297 14.118 0.831576L0.664261 11.8887C0.500855 12.0521 0.391918 12.3244 0.391918 12.5423C0.391918 12.7057 0.446387 12.9781 0.555324 13.087L1.15448 13.7951C1.26341 13.9585 1.59023 14.0674 1.8081 14.0674C1.97151 14.0674 2.24385 14.013 2.35279 13.904L3.8779 12.6512V15.8104H3.82344V27.1399C3.82344 27.6301 4.20472 28.0114 4.69493 28.0114H27.4083C27.8441 28.0114 28.2798 27.6301 28.2798 27.1399V12.6512L29.7505 13.904C29.8594 14.013 30.1317 14.1219 30.2951 14.1219C30.513 14.1219 30.8398 13.9585 31.0032 13.7951L31.5479 13.087C31.6569 12.9781 31.7658 12.7057 31.7658 12.5423C31.7658 12.3244 31.6024 12.0521 31.439 11.8887ZM25.6653 12.3244H25.6109V25.3969H19.5648V17.5534C19.5648 16.6275 18.7478 15.8104 17.8219 15.8104H14.3359C13.3554 15.8104 12.5929 16.6275 12.5929 17.5534V25.3969H6.43793V10.7449H6.49239V10.527L16.0789 2.62904L25.6653 10.527V12.3244Z" fill="white"/>
</svg>
