<svg width="48" height="43" viewBox="0 0 48 43" fill="none" xmlns="http://www.w3.org/2000/svg">
<path d="M47.5 18.3334L26.9167 1.41675C26.25 0.833414 24.9167 0.333414 23.9167 0.333414C23 0.333414 21.6667 0.833414 21 1.41675L0.416667 18.3334C0.166667 18.5834 0 19.0001 0 19.3334C0 19.5834 0.0833333 20.0001 0.25 20.1667L1.16667 21.2501C1.33333 21.5001 1.83333 21.6667 2.16667 21.6667C2.41667 21.6667 2.83333 21.5834 3 21.4167L5.33333 19.5001V24.3334H5.25V41.6667C5.25 42.4167 5.83333 43.0001 6.58333 43.0001H41.3333C42 43.0001 42.6667 42.4167 42.6667 41.6667V19.5001L44.9167 21.4167C45.0833 21.5834 45.5 21.7501 45.75 21.7501C46.0833 21.7501 46.5833 21.5001 46.8333 21.2501L47.6667 20.1667C47.8333 20.0001 48 19.5834 48 19.3334C48 19.0001 47.75 18.5834 47.5 18.3334ZM38.6667 19.0001H38.5833V39.0001H29.3333V27.0001C29.3333 25.5834 28.0833 24.3334 26.6667 24.3334H21.3333C19.8333 24.3334 18.6667 25.5834 18.6667 27.0001V39.0001H9.25V16.5834H9.33333V16.2501L24 4.16675L38.6667 16.2501V19.0001Z" fill="white"/>
</svg>
