<svg width="52" height="27" viewBox="0 0 52 27" fill="none" xmlns="http://www.w3.org/2000/svg">
<path d="M45.5417 4.79158V9.95825H48.125V17.7083H45.5417V22.8749H4.20832V4.79158H45.5417ZM45.5417 0.916584H4.20832C2.02863 0.916584 0.333321 2.69263 0.333321 4.79158V22.8749C0.333321 25.0546 2.02863 26.7499 4.20832 26.7499H45.5417C47.6406 26.7499 49.4167 25.0546 49.4167 22.8749V21.5833H50.0625C51.112 21.5833 52 20.776 52 19.6458V8.02075C52 6.97127 51.112 6.08325 50.0625 6.08325H49.4167V4.79158C49.4167 2.69263 47.6406 0.916584 45.5417 0.916584ZM41.6667 8.66658H8.08332V18.9999H41.6667V8.66658Z" fill="white"/>
</svg>
