<svg width="31" height="31" viewBox="0 0 31 31" fill="none" xmlns="http://www.w3.org/2000/svg">
<path d="M19.8384 6.22355L23.4 7.64817L24.8246 11.2097C24.9433 11.3878 25.1214 11.5065 25.2995 11.5065C25.4182 11.5065 25.5962 11.3878 25.715 11.2097L27.1989 7.64817L30.7011 6.22355C30.8792 6.10483 30.9979 5.92676 30.9979 5.74868C30.9979 5.62996 30.8792 5.45189 30.7011 5.33317L27.1989 3.84919L25.715 0.347007C25.5962 0.16893 25.4182 0.0502114 25.2995 0.0502114C25.1214 0.0502114 24.9433 0.16893 24.8246 0.347007L23.4 3.84919L19.8384 5.33317C19.6603 5.45189 19.5416 5.62996 19.5416 5.74868C19.5416 5.92676 19.6603 6.10483 19.8384 6.22355ZM30.7011 24.3281L27.1989 22.8441L25.715 19.3419C25.5962 19.1638 25.4182 19.0451 25.2995 19.0451C25.1214 19.0451 24.9433 19.1638 24.8246 19.3419L23.4 22.8441L19.8384 24.3281C19.6603 24.4468 19.5416 24.6249 19.5416 24.7436C19.5416 24.9217 19.6603 25.0997 19.8384 25.2184L23.4 26.6431L24.8246 30.2046C24.9433 30.3827 25.1214 30.5014 25.2995 30.5014C25.4182 30.5014 25.5962 30.3827 25.715 30.2046L27.1989 26.6431L30.7011 25.2184C30.8792 25.0997 30.9979 24.9217 30.9979 24.7436C30.9979 24.6249 30.8792 24.4468 30.7011 24.3281ZM23.4 15.2461C23.3406 14.7713 23.0438 14.237 22.5689 13.9996L16.3362 10.9129L13.2496 4.68022C12.7747 3.73047 11.172 3.73047 10.6971 4.68022L7.61045 10.9129L1.37775 13.9996C0.90288 14.237 0.606085 14.7713 0.606085 15.2461C0.606085 15.7804 0.90288 16.3146 1.37775 16.552L7.61045 19.6387L10.6971 25.8714C10.9346 26.3463 11.4688 26.7024 12.003 26.7024C12.4779 26.7024 13.0121 26.3463 13.2496 25.8714L16.3362 19.6387L22.5689 16.552C23.0438 16.3146 23.3406 15.7804 23.4 15.2461ZM14.6742 17.3237C14.4367 17.4424 14.1399 17.7392 14.0212 17.9766L12.003 22.0724L9.92546 17.9766C9.80674 17.7392 9.50994 17.4424 9.27251 17.3237L5.17673 15.2461L9.27251 13.2279C9.50994 13.1092 9.80674 12.8124 9.92546 12.575L12.003 8.4792L14.0212 12.575C14.1399 12.8124 14.4367 13.1092 14.6742 13.2279L18.77 15.2461L14.6742 17.3237Z" fill="white"/>
</svg>
