<svg width="41" height="45" viewBox="0 0 41 45" fill="none" xmlns="http://www.w3.org/2000/svg">
<path d="M39.6068 25.2069C40.3685 23.9374 40.7917 22.5833 40.7917 20.9752C40.7917 17.2512 37.5755 13.7812 33.513 13.7812H30.3815C30.8047 12.6809 31.1432 11.4114 31.1432 9.8033C31.1432 3.62492 27.9271 0.916583 23.1029 0.916583C17.8555 0.916583 18.194 8.95695 17.0091 10.1418C15.0625 12.0885 12.7773 15.8124 11.1693 17.1666H2.87499C1.35156 17.1666 0.16666 18.4361 0.16666 19.8749V40.1874C0.16666 41.7109 1.35156 42.8958 2.87499 42.8958H8.29166C9.47656 42.8958 10.5768 42.0494 10.8307 40.9491C14.6393 41.0338 17.263 44.2499 25.8958 44.2499C26.5729 44.2499 27.25 44.2499 27.8424 44.2499C34.3594 44.2499 37.237 40.9491 37.3216 36.2096C38.5065 34.6861 39.099 32.5702 38.845 30.539C39.6914 29.0155 39.9453 27.1536 39.6068 25.2069ZM34.3594 29.7773C35.4596 31.5546 34.444 33.9244 33.1745 34.6861C33.8516 38.7486 31.651 40.1874 28.6888 40.1874H25.4727C19.4635 40.1874 15.4857 37.0559 11 37.0559V21.2291H11.8463C14.3008 21.2291 17.6016 15.3046 19.8867 13.0194C22.2565 10.6497 21.4948 6.58716 23.1029 4.97908C27.0807 4.97908 27.0807 7.77205 27.0807 9.8033C27.0807 13.1041 24.7109 14.6275 24.7109 17.8437H33.513C35.2904 17.8437 36.6445 19.4517 36.7292 21.0598C36.7292 22.5833 35.6289 24.1913 34.7825 24.1913C35.9674 25.4609 36.2213 28.0846 34.3594 29.7773ZM7.61458 37.4791C7.61458 38.664 6.68359 39.5103 5.58333 39.5103C4.39843 39.5103 3.55208 38.664 3.55208 37.4791C3.55208 36.3788 4.39843 35.4478 5.58333 35.4478C6.68359 35.4478 7.61458 36.3788 7.61458 37.4791Z" fill="white"/>
</svg>
