<svg width="36" height="18" viewBox="0 0 36 18" fill="none" xmlns="http://www.w3.org/2000/svg">
<path d="M31.0092 3.20112V6.66489H32.7411V11.8606H31.0092V15.3243H3.29897V3.20112H31.0092ZM31.0092 0.603287H3.29897C1.83769 0.603287 0.701141 1.79396 0.701141 3.20112V15.3243C0.701141 16.7856 1.83769 17.9222 3.29897 17.9222H31.0092C32.4163 17.9222 33.607 16.7856 33.607 15.3243V14.4584H34.04C34.7436 14.4584 35.3389 13.9172 35.3389 13.1595V5.36598C35.3389 4.6624 34.7436 4.06706 34.04 4.06706H33.607V3.20112C33.607 1.79396 32.4163 0.603287 31.0092 0.603287ZM28.4113 5.79895H5.8968V12.7265H28.4113V5.79895Z" fill="white"/>
</svg>
