<svg width="18" height="23" viewBox="0 0 18 23" fill="none" xmlns="http://www.w3.org/2000/svg">
<path d="M11.3038 9.33313C13.3674 9.58842 14.9417 10.2905 16.0267 11.4393C17.1117 12.5881 17.6542 14.0241 17.6542 15.7473C17.6542 17.0451 17.3244 18.2258 16.6649 19.2895C16.0054 20.3532 15.0055 21.2042 13.6652 21.8424C12.3462 22.4594 10.7294 22.7678 8.81471 22.7678C7.21914 22.7678 5.67675 22.5445 4.18755 22.0977C2.71963 21.6297 1.46445 20.9914 0.422005 20.183L2.20905 16.96C3.01747 17.6407 3.99609 18.1832 5.1449 18.5874C6.31498 18.9704 7.51698 19.1619 8.75089 19.1619C10.2188 19.1619 11.3676 18.864 12.1973 18.2683C13.0483 17.6514 13.4738 16.8217 13.4738 15.7792C13.4738 14.7368 13.0696 13.9284 12.2611 13.354C11.474 12.7583 10.2614 12.4605 8.62324 12.4605H6.58091V9.62034L11.6548 3.58908H1.50699V0.110729H16.7287V2.88702L11.3038 9.33313Z" fill="white"/>
</svg>
