<svg width="47" height="46" viewBox="0 0 47 46" fill="none" xmlns="http://www.w3.org/2000/svg">
<path d="M1.96355 22.1355L21.7969 44.3595C22.3281 44.9792 23.125 45.3334 23.8333 45.3334C24.6302 45.3334 25.4271 44.9792 25.9583 44.3595L45.7917 22.1355C46.8542 20.9845 46.7656 19.2136 45.6146 18.1511L25.7813 0.619871C25.25 0.177163 24.5417 7.91135e-05 23.8333 7.90516e-05C23.2136 7.89974e-05 22.5052 0.177162 21.974 0.619871L2.14064 18.1511C0.989595 19.2136 0.901053 20.9845 1.96355 22.1355ZM23.8333 19.8334L29.7656 23.7292L23.8333 37.3647L17.9896 23.7292L23.8333 19.8334ZM33.9271 24.7032L38.974 23.4636L30.2969 33.1147L33.9271 24.7032ZM32.7761 20.6303L25.9583 16.1147L25.9583 6.55216L39.9479 18.8595L32.7761 20.6303ZM21.7083 16.1147L14.9792 20.6303L7.8073 18.8595L21.7083 6.55216L21.7083 16.1147ZM13.8281 24.7032L17.4583 33.1147L8.78126 23.4636L13.8281 24.7032Z" fill="white"/>
</svg>
