<svg width="32" height="24" viewBox="0 0 32 24" fill="none" xmlns="http://www.w3.org/2000/svg">
<path d="M0.0220699 9.26934C0.0220699 9.70563 0.333705 10.0173 0.769994 10.0173H2.26584C2.6398 10.0173 3.01377 9.70563 3.01377 9.26934V3.03664H9.24647C9.62043 3.03664 9.99439 2.72501 9.99439 2.28872V0.79287C9.99439 0.418908 9.62043 0.0449457 9.24647 0.0449457H1.51792C0.64534 0.0449457 0.0220699 0.730543 0.0220699 1.54079V9.26934ZM21.9612 0.79287V2.28872C21.9612 2.72501 22.2728 3.03664 22.7091 3.03664H28.9418V9.26934C28.9418 9.70563 29.2534 10.0173 29.6897 10.0173H31.1856C31.5595 10.0173 31.9335 9.70563 31.9335 9.26934V1.54079C31.9335 0.730543 31.2479 0.0449457 30.4376 0.0449457H22.7091C22.2728 0.0449457 21.9612 0.418908 21.9612 0.79287ZM31.1856 14.0062H29.6897C29.2534 14.0062 28.9418 14.3802 28.9418 14.7541V20.9868H22.7091C22.2728 20.9868 21.9612 21.3608 21.9612 21.7347V23.2306C21.9612 23.6669 22.2728 23.9785 22.7091 23.9785H30.4376C31.2479 23.9785 31.9335 23.3552 31.9335 22.4827V14.7541C31.9335 14.3802 31.5595 14.0062 31.1856 14.0062ZM9.99439 23.2306V21.7347C9.99439 21.3608 9.62043 20.9868 9.24647 20.9868H3.01377V14.7541C3.01377 14.3802 2.6398 14.0062 2.26584 14.0062H0.769994C0.333705 14.0062 0.0220699 14.3802 0.0220699 14.7541V22.4827C0.0220699 23.3552 0.64534 23.9785 1.51792 23.9785H9.24647C9.62043 23.9785 9.99439 23.6669 9.99439 23.2306Z" fill="white"/>
</svg>
