<svg width="29" height="31" viewBox="0 0 29 31" fill="none" xmlns="http://www.w3.org/2000/svg">
<path d="M27.7883 17.3695C28.3245 16.4758 28.6224 15.5226 28.6224 14.3906C28.6224 11.7692 26.3585 9.32655 23.4988 9.32655H21.2944C21.5923 8.55204 21.8306 7.65839 21.8306 6.52642C21.8306 2.17727 19.5667 0.270802 16.1708 0.270802C12.477 0.270802 12.7153 5.93064 11.8812 6.76473C10.5109 8.135 8.90233 10.7564 7.77036 11.7096H1.93179C0.859396 11.7096 0.0253143 12.6033 0.0253143 13.6161V27.9147C0.0253143 28.9871 0.859396 29.8211 1.93179 29.8211H5.74473C6.57882 29.8211 7.35332 29.2254 7.53205 28.4509C10.213 28.5104 12.0599 30.7744 18.1368 30.7744C18.6134 30.7744 19.09 30.7744 19.5071 30.7744C24.0945 30.7744 26.1202 28.4509 26.1797 25.1145C27.0138 24.0421 27.4309 22.5527 27.2521 21.1229C27.8479 20.0505 28.0266 18.7398 27.7883 17.3695ZM24.0945 20.5867C24.869 21.8378 24.1541 23.5059 23.2605 24.0421C23.7371 26.9018 22.1881 27.9147 20.1029 27.9147H17.8389C13.6089 27.9147 10.8088 25.7103 7.65121 25.7103V14.5694H8.24698C9.97472 14.5694 12.2982 10.3989 13.9068 8.79035C15.575 7.12219 15.0388 4.26248 16.1708 3.13051C18.9709 3.13051 18.9709 5.09656 18.9709 6.52642C18.9709 8.84993 17.3027 9.92232 17.3027 12.1863H23.4988C24.7499 12.1863 25.7031 13.3182 25.7627 14.4502C25.7627 15.5226 24.9882 16.6546 24.3924 16.6546C25.2265 17.5482 25.4052 19.3951 24.0945 20.5867ZM5.26812 26.0082C5.26812 26.8423 4.61277 27.438 3.83826 27.438C3.00418 27.438 2.40841 26.8423 2.40841 26.0082C2.40841 25.2337 3.00418 24.5783 3.83826 24.5783C4.61277 24.5783 5.26812 25.2337 5.26812 26.0082Z" fill="white"/>
</svg>
