<svg width="46" height="47" viewBox="0 0 46 47" fill="none" xmlns="http://www.w3.org/2000/svg">
<path d="M29.3542 9.87492L34.6667 11.9999L36.7917 17.3124C36.9687 17.578 37.2344 17.7551 37.5 17.7551C37.6771 17.7551 37.9427 17.578 38.1198 17.3124L40.3333 11.9999L45.5573 9.87492C45.8229 9.69784 46 9.43221 46 9.16659C46 8.9895 45.8229 8.72388 45.5573 8.54679L40.3333 6.33325L38.1198 1.10929C37.9427 0.84367 37.6771 0.666586 37.5 0.666586C37.2344 0.666586 36.9687 0.84367 36.7917 1.10929L34.6667 6.33325L29.3542 8.54679C29.0885 8.72388 28.9115 8.9895 28.9115 9.16659C28.9115 9.43221 29.0885 9.69784 29.3542 9.87492ZM45.5573 36.8801L40.3333 34.6666L38.1198 29.4426C37.9427 29.177 37.6771 28.9999 37.5 28.9999C37.2344 28.9999 36.9687 29.177 36.7917 29.4426L34.6667 34.6666L29.3542 36.8801C29.0885 37.0572 28.9115 37.3228 28.9115 37.4999C28.9115 37.7655 29.0885 38.0312 29.3542 38.2083L34.6667 40.3333L36.7917 45.6458C36.9687 45.9114 37.2344 46.0885 37.5 46.0885C37.6771 46.0885 37.9427 45.9114 38.1198 45.6458L40.3333 40.3333L45.5573 38.2083C45.8229 38.0312 46 37.7655 46 37.4999C46 37.3228 45.8229 37.0572 45.5573 36.8801ZM34.6667 23.3333C34.5781 22.6249 34.1354 21.828 33.4271 21.4739L24.1302 16.8697L19.526 7.57284C18.8177 6.15617 16.4271 6.15617 15.7187 7.57284L11.1146 16.8697L1.8177 21.4739C1.10937 21.828 0.666662 22.6249 0.666662 23.3333C0.666662 24.1301 1.10937 24.927 1.8177 25.2812L11.1146 29.8853L15.7187 39.1822C16.0729 39.8905 16.8698 40.4218 17.6667 40.4218C18.375 40.4218 19.1719 39.8905 19.526 39.1822L24.1302 29.8853L33.4271 25.2812C34.1354 24.927 34.5781 24.1301 34.6667 23.3333ZM21.651 26.4322C21.2969 26.6093 20.8542 27.052 20.6771 27.4062L17.6667 33.5155L14.5677 27.4062C14.3906 27.052 13.9479 26.6093 13.5937 26.4322L7.48437 23.3333L13.5937 20.3228C13.9479 20.1458 14.3906 19.703 14.5677 19.3489L17.6667 13.2395L20.6771 19.3489C20.8542 19.703 21.2969 20.1458 21.651 20.3228L27.7604 23.3333L21.651 26.4322Z" fill="white"/>
</svg>
