<svg width="31" height="32" viewBox="0 0 31 32" fill="none" xmlns="http://www.w3.org/2000/svg">
<path d="M0.633207 15.4659L14.0399 30.4886C14.399 30.9075 14.9377 31.1469 15.4165 31.1469C15.9552 31.1469 16.4938 30.9075 16.8529 30.4886L30.2597 15.4659C30.9779 14.6878 30.918 13.4908 30.14 12.7725L16.7332 0.921964C16.3741 0.622707 15.8953 0.503004 15.4165 0.503004C14.9975 0.503004 14.5187 0.622707 14.1596 0.921964L0.75291 12.7725C-0.0251588 13.4908 -0.0850103 14.6878 0.633207 15.4659ZM15.4165 13.9097L19.4265 16.5432L15.4165 25.7603L11.4663 16.5432L15.4165 13.9097ZM22.2396 17.2015L25.6511 16.3636L19.7857 22.8874L22.2396 17.2015ZM21.4615 14.4484L16.8529 11.396L16.8529 4.93201L26.3095 13.2514L21.4615 14.4484ZM13.9801 11.396L9.43136 14.4484L4.5834 13.2514L13.9801 4.93201L13.9801 11.396ZM8.6533 17.2015L11.1072 22.8874L5.24177 16.3636L8.6533 17.2015Z" fill="white"/>
</svg>
