<svg width="1920" height="22" viewBox="0 0 1920 22" fill="none" xmlns="http://www.w3.org/2000/svg">
<path d="M-337.17 2.17578C-323.815 2.17578 -323.815 20.1758 -310.461 20.1758C-297.106 20.1758 -297.106 2.17578 -283.751 2.17578C-270.396 2.17578 -270.396 20.1758 -257.073 20.1758C-243.718 20.1758 -243.718 2.17578 -230.395 2.17578C-217.04 2.17578 -217.04 20.1758 -203.717 20.1758C-190.362 20.1758 -190.362 2.17578 -177.008 2.17578C-163.653 2.17578 -163.653 20.1758 -150.298 20.1758C-136.944 20.1758 -136.944 2.17578 -123.589 2.17578C-110.234 2.17578 -110.234 20.1758 -96.8789 20.1758C-83.5249 20.1758 -83.5249 2.17578 -70.1699 2.17578M466.83 2.17578C480.185 2.17578 480.185 20.1758 493.539 20.1758C506.894 20.1758 506.894 2.17578 520.249 2.17578C533.604 2.17578 533.604 20.1758 546.927 20.1758C560.282 20.1758 560.282 2.17578 573.605 2.17578C586.96 2.17578 586.96 20.1758 600.283 20.1758C613.638 20.1758 613.638 2.17578 626.992 2.17578C640.347 2.17578 640.347 20.1758 653.702 20.1758C667.056 20.1758 667.056 2.17578 680.411 2.17578C693.766 2.17578 693.766 20.1758 707.121 20.1758C720.475 20.1758 720.475 2.17578 733.83 2.17578M1270.83 2.17578C1284.18 2.17578 1284.18 20.1758 1297.54 20.1758C1310.89 20.1758 1310.89 2.17578 1324.25 2.17578C1337.6 2.17578 1337.6 20.1758 1350.93 20.1758C1364.28 20.1758 1364.28 2.17578 1377.61 2.17578C1390.96 2.17578 1390.96 20.1758 1404.28 20.1758C1417.64 20.1758 1417.64 2.17578 1430.99 2.17578C1444.35 2.17578 1444.35 20.1758 1457.7 20.1758C1471.06 20.1758 1471.06 2.17578 1484.41 2.17578C1497.77 2.17578 1497.77 20.1758 1511.12 20.1758C1524.48 20.1758 1524.48 2.17578 1537.83 2.17578M-70.9087 2.21033C-57.454 2.21033 -57.4539 20.2103 -43.9992 20.2103C-30.5445 20.2103 -30.5445 2.21033 -17.0898 2.21033C-3.63502 2.21033 -3.63502 20.2103 9.78818 20.2103C23.2433 20.2103 23.2433 2.21033 36.6661 2.21033C50.1212 2.21033 50.1211 20.2103 63.5439 20.2103C76.999 20.2103 76.999 2.21033 90.453 2.21033C103.908 2.21033 103.908 20.2103 117.363 20.2103C130.817 20.2103 130.817 2.21033 144.272 2.21033C157.727 2.21033 157.727 20.2103 171.182 20.2103C184.636 20.2103 184.636 2.21033 198.091 2.21033C211.546 2.21033 211.546 20.2103 225.001 20.2103C238.456 20.2103 238.456 2.21033 251.91 2.21033C265.365 2.21033 265.365 20.2103 278.788 20.2103C292.243 20.2103 292.243 2.21033 305.666 2.21033C319.121 2.21033 319.121 20.2103 332.544 20.2103C345.999 20.2103 345.999 2.21033 359.453 2.21033C372.908 2.21033 372.908 20.2103 386.363 20.2103C399.817 20.2103 399.817 2.21033 413.272 2.21033C426.727 2.21033 426.727 20.2103 440.182 20.2103C453.636 20.2103 453.636 2.21033 467.091 2.21033M733.091 2.21033C746.546 2.21033 746.546 20.2103 760.001 20.2103C773.455 20.2103 773.456 2.21033 786.91 2.21033C800.365 2.21033 800.365 20.2103 813.788 20.2103C827.243 20.2103 827.243 2.21033 840.666 2.21033C854.121 2.21033 854.121 20.2103 867.544 20.2103C880.999 20.2103 880.999 2.21033 894.453 2.21033C907.908 2.21033 907.908 20.2103 921.363 20.2103C934.817 20.2103 934.817 2.21033 948.272 2.21033C961.727 2.21033 961.727 20.2103 975.182 20.2103C988.636 20.2103 988.636 2.21033 1002.09 2.21033C1015.55 2.21033 1015.55 20.2103 1029 20.2103C1042.46 20.2103 1042.46 2.21033 1055.91 2.21033C1069.37 2.21033 1069.37 20.2103 1082.79 20.2103C1096.24 20.2103 1096.24 2.21033 1109.67 2.21033C1123.12 2.21033 1123.12 20.2103 1136.54 20.2103C1150 20.2103 1150 2.21033 1163.45 2.21033C1176.91 2.21033 1176.91 20.2103 1190.36 20.2103C1203.82 20.2103 1203.82 2.21033 1217.27 2.21033C1230.73 2.21033 1230.73 20.2103 1244.18 20.2103C1257.64 20.2103 1257.64 2.21033 1271.09 2.21033M1537.09 2.21033C1550.55 2.21033 1550.55 20.2103 1564 20.2103C1577.46 20.2103 1577.46 2.21033 1590.91 2.21033C1604.37 2.21033 1604.37 20.2103 1617.79 20.2103C1631.24 20.2103 1631.24 2.21033 1644.67 2.21033C1658.12 2.21033 1658.12 20.2103 1671.54 20.2103C1685 20.2103 1685 2.21033 1698.45 2.21033C1711.91 2.21033 1711.91 20.2103 1725.36 20.2103C1738.82 20.2103 1738.82 2.21033 1752.27 2.21033C1765.73 2.21033 1765.73 20.2103 1779.18 20.2103C1792.64 20.2103 1792.64 2.21033 1806.09 2.21033C1819.55 2.21033 1819.55 20.2103 1833 20.2103C1846.46 20.2103 1846.46 2.21033 1859.91 2.21033C1873.36 2.21033 1873.36 20.2103 1886.79 20.2103C1900.24 20.2103 1900.24 2.21033 1913.67 2.21033C1927.12 2.21033 1927.12 20.2103 1940.54 20.2103C1954 20.2103 1954 2.21033 1967.45 2.21033C1980.91 2.21033 1980.91 20.2103 1994.36 20.2103C2007.82 20.2103 2007.82 2.21033 2021.27 2.21033C2034.73 2.21033 2034.73 20.2103 2048.18 20.2103C2061.64 20.2103 2061.64 2.21033 2075.09 2.21033" stroke="url(#paint0_linear_52_784)" stroke-width="3" stroke-miterlimit="10" stroke-linecap="round"/>
<defs>
<linearGradient id="paint0_linear_52_784" x1="-272.337" y1="9.4977" x2="2105.21" y2="-19.5507" gradientUnits="userSpaceOnUse">
<stop offset="0" stop-color="#4DB4FF">
    <animate attributeName="offset" values="0;0.2" dur="3s" repeatCount="indefinite"  /> 
</stop>
<stop offset="0.2" stop-color="#F5B6FF"> 
    <animate attributeName="offset" values="0.2;0.4" dur="3s" repeatCount="indefinite"  /> 
</stop>
<stop offset="0.4" stop-color="#4DB4FF">
    <animate attributeName="offset" values="0.4;0.6" dur="3s" repeatCount="indefinite"  /> 
</stop>
<stop offset="0.6" stop-color="#F5B6FF"> 
    <animate attributeName="offset" values="0.6;0.8" dur="3s" repeatCount="indefinite"  /> 
</stop>
<stop offset="0.8" stop-color="#4DB4FF">
    <animate attributeName="offset" values="0.8;1" dur="3s" repeatCount="indefinite"  /> 
</stop>

</linearGradient>
</defs>
</svg>