<svg width="43" height="41" viewBox="0 0 43 41" fill="none" xmlns="http://www.w3.org/2000/svg">
<path d="M7.51344 0.957741L4.37339 0.725124C3.75482 0.681911 0.0033256 1.24368 0.951383 2.46224C11.0592 15.5127 21.8652 28.0071 33.322 39.8908L37.6818 38.3322C29.5702 35.2107 20.9788 33.5189 12.2893 33.3322L10.1022 35.458C19.5892 35.4339 29.0468 36.5135 38.2843 38.675C39.3 38.8584 40.3474 38.7317 41.2901 38.3116C41.5977 38.1779 42.8694 37.471 42.2334 37.0062C38.0038 33.83 34.8462 29.4367 33.184 24.4152C31.5219 19.3937 31.4345 13.984 32.9337 8.91148L28.0534 9.49477L28.525 12.4643C28.7356 13.8396 33.7014 13.0065 33.4352 11.5842L32.9637 8.61466C32.7419 7.22277 28.3863 8.06857 28.0778 9.18965C26.4892 14.4461 26.551 20.0633 28.255 25.2834C29.959 30.5036 33.2231 35.0755 37.607 38.3823L41.5561 36.7135C31.9757 34.4699 22.1678 33.3427 12.3282 33.3543C11.3186 33.3562 9.72401 33.4369 9.01284 34.298C8.30166 35.1591 9.43104 35.4621 10.1328 35.4857C18.1827 35.6335 26.145 37.186 33.6607 40.0732C34.6942 40.3914 35.8056 40.3442 36.8084 39.9397C37.2214 39.7836 38.6874 39.1513 38.0317 38.5312C26.5748 26.6475 15.7688 14.1531 5.661 1.10267L2.239 2.83978L5.37074 3.07796C6.35268 3.14268 8.00533 2.95097 8.67776 2.13984C9.3502 1.32871 8.24848 0.995178 7.56611 0.946539L7.51344 0.957741Z" fill="#5B8930"/>
</svg>
