<svg width="278" height="9" viewBox="0 0 278 9" fill="none" xmlns="http://www.w3.org/2000/svg">
<path d="M273.412 0.809408C237.695 2.76665 201.971 4.0615 166.242 4.69394C130.981 5.32001 95.796 5.29092 60.6876 4.60672C40.7708 4.22068 20.8871 3.62539 1.03654 2.82079C-0.0121917 2.77939 1.57946 4.19297 1.73351 4.33031C2.2635 4.79016 3.64261 6.20585 4.921 6.26136C40.2191 7.68693 75.6915 8.45532 111.338 8.5665C146.734 8.66751 182.2 8.11363 217.737 6.90491C237.786 6.2263 257.83 5.33466 277.868 4.22994C278.472 4.19975 276.5 2.38706 276.347 2.26673C275.819 1.84944 274.635 0.739697 273.461 0.80696L273.412 0.809408Z" fill="#5B8930"/>
</svg>
